<?xml version="1.0" encoding="utf-8"?>
<!-- Generator: Adobe Illustrator 25.0.1, SVG Export Plug-In . SVG Version: 6.00 Build 0)  -->
<svg version="1.1" id="Isolation_Mode" xmlns="http://www.w3.org/2000/svg" xmlns:xlink="http://www.w3.org/1999/xlink" x="0px"
	 y="0px" viewBox="0 0 550 236" style="enable-background:new 0 0 550 236;" xml:space="preserve">
<style type="text/css">
	.st0{fill:#FFFFFF;}
</style>
<g>
	<path class="st0" d="M117.7,182.4c24.4,3,45.8,14.2,61.9,30.4c16-26.1,46.3-41.9,78.7-37.9c0,0,0,0,0.1,0
		c11.1-71.5,77.1-121.7,149.4-112.8c3.7,0.5,7.3,1.1,10.9,1.8c23.7-42.5,71.5-68.7,122.8-62.3c3.2,0.4,5.6,0.9,8.7,1.5
		c0,47.2-0.1,232.4-0.1,232.4S87.3,234.9,12,234.9C32.1,197.9,73.4,176.9,117.7,182.4z"/>
</g>
</svg>
